<?xml version="1.0" standalone="no"?><!DOCTYPE svg PUBLIC "-//W3C//DTD SVG 1.1//EN" "http://www.w3.org/Graphics/SVG/1.1/DTD/svg11.dtd"><svg class="icon" width="64px" height="64.00px" viewBox="0 0 1024 1024" version="1.1" xmlns="http://www.w3.org/2000/svg"><path fill="#66CAC0" d="M812 742.592L512 569.792l-300 172.8L512 138.592l300 604zM264.512 686.784L512 544.288l247.488 142.496L512 188.48 264.512 686.784z m107.2 70.912v126.208h-15.904v-126.208H309.92v-14.688h107.392v14.784h-45.6z m134.88-16.192c26.592 0 43.296 3.904 50.016 11.712s10.016 27.2 10.016 58.304c0 33.504-3.2 54.208-9.6 62.016s-23.2 11.808-50.4 11.808c-27.008 0-43.808-3.904-50.304-11.712s-9.792-27.904-9.792-60.288v-9.888l0.192-13.312c0-18.688 4.192-31.488 12.608-38.4 8.512-6.688 24.192-10.208 47.296-10.208z m-0.096 13.504c-22.304 0-35.296 2.496-39.104 7.392-3.808 4.992-5.696 22.016-5.696 51.008 0 29.088 1.888 46.112 5.696 51.104s16.8 7.392 39.104 7.392c22.4 0 35.392-2.496 39.2-7.392 3.808-4.992 5.696-22.016 5.696-51.104v-9.216l-0.096-13.312c0-15.616-2.592-25.408-7.808-29.6s-17.6-6.304-36.992-6.304z m101.888 128.896v-140.896h64.608c15.904 0 26.688 3.104 32.512 9.216s8.704 17.6 8.704 34.4c0 16.096-3.008 27.104-8.992 32.896-6.016 5.888-17.312 8.8-33.888 8.8l-6.208 0.096h-40.704v55.488h-16z m15.904-68.992h37.696c15.808 0 25.888-1.6 30.304-4.896 4.384-3.2 6.688-10.688 6.688-22.304 0-13.6-1.504-22.208-4.512-25.888-3.008-3.616-10.112-5.408-21.312-5.408l-6.112-0.096h-42.688v58.592z" /></svg>