<?xml version="1.0" standalone="no"?><!DOCTYPE svg PUBLIC "-//W3C//DTD SVG 1.1//EN" "http://www.w3.org/Graphics/SVG/1.1/DTD/svg11.dtd"><svg class="icon" width="64px" height="64.00px" viewBox="0 0 1024 1024" version="1.1" xmlns="http://www.w3.org/2000/svg"><path fill="#66CAC0" d="M622.5 821.2h-96c-5.6 0-10.7-3.1-13.3-8.1-2.6-5-2.2-11 1.1-15.6l27.7-39.2-30.6-30.7c-4.3-4.3-5.5-10.7-3.2-16.3 2.3-5.6 7.8-9.2 13.9-9.2h72.3c52.1 0 94.5-42.4 94.5-94.5S646.4 513 594.3 513h-87c-8.3 0-15-6.7-15-15s6.7-15 15-15h87c68.7 0 124.5 55.9 124.5 124.5 0 68.7-55.9 124.5-124.5 124.5h-36.2l14 14.1c5.1 5.2 5.8 13.3 1.6 19.2l-18.3 25.9h67c111.7 0 202.5-90.8 202.5-202.5v-19.9c0-111.7-90.8-202.5-202.5-202.5H283.1c-48 0-87.1-39.1-87.1-87.1 0-40.8 33.2-74.1 74.1-74.1h21.4c28.2 0 55.9 5.1 82.3 15.2 38.6 14.8 81.7 16.5 121.4 4.8l65.6-19.4c7.9-2.3 16.3 2.2 18.6 10.1 2.3 7.9-2.2 16.3-10.1 18.6L503.6 254c-45.9 13.6-95.9 11.6-140.6-5.5-22.9-8.8-47-13.2-71.5-13.2h-21.4c-24.3 0-44.1 19.8-44.1 44.1 0 31.5 25.6 57.1 57.1 57.1h339.4c61.9 0 120.2 24.3 164.2 68.3 44 44 68.3 102.4 68.3 164.2v19.9c0 61.9-24.3 120.2-68.3 164.2-44 43.9-102.4 68.1-164.2 68.1z"  /><path fill="#66CAC0" d="M524.6 513.1c-47.3 0-92.3-14.9-130.2-43.2-36.5-27.3-64.1-66.3-77.6-109.6-2.5-7.9 2-16.3 9.9-18.8s16.3 2 18.8 9.9C370 430.2 442 483.2 524.6 483.2c75.1 0 142.8-44.6 172.4-113.7 3.3-7.6 12.1-11.1 19.7-7.9 7.6 3.3 11.1 12.1 7.9 19.7-34.3 80.1-112.8 131.8-200 131.8zM722.2 790.8c-2.1 0-4.1-0.4-6.1-1.3-34.6-15.5-63.4-42.6-81.1-76.2-3.9-7.3-1-16.4 6.3-20.3s16.4-1 20.3 6.3c14.6 27.7 38.3 50 66.8 62.8 7.6 3.4 10.9 12.3 7.6 19.8-2.6 5.6-8.1 8.9-13.8 8.9zM711.8 605.9c-8.3 0-15-6.7-15-15s6.7-15 15-15c42.3 0 81.9-18.8 108.6-51.6 5.2-6.4 14.7-7.4 21.1-2.1 6.4 5.2 7.4 14.7 2.1 21.1-32.4 39.7-80.4 62.6-131.8 62.6zM582.2 579.3c-8.3 0-15-6.7-15-15s6.7-15 15-15c28.8 0 56.5-8.7 80-25.1 6.8-4.7 16.1-3.1 20.9 3.7 4.7 6.8 3.1 16.1-3.7 20.9-28.6 19.9-62.2 30.5-97.2 30.5z"  /><path fill="#66CAC0" d="M628.7 649.1c-5.9 0-11.5-3.5-13.9-9.4-3.1-7.7 0.6-16.4 8.3-19.5 23.1-9.4 43.2-24.7 58.3-44.3 5-6.6 14.5-7.8 21-2.7 6.6 5 7.8 14.5 2.7 21-18.3 23.8-42.8 42.4-70.8 53.8-1.8 0.8-3.7 1.1-5.6 1.1z"  /><path fill="#66CAC0" d="M502.8 400.2m-20 0a20 20 0 1 0 40 0 20 20 0 1 0-40 0Z"  /></svg>